<svg width="89" height="137" viewBox="0 0 89 137" fill="none" xmlns="http://www.w3.org/2000/svg">
<g clip-path="url(#clip0_137_256)">
<path d="M85.5577 9.33133H64.4844C64.4276 7.38952 62.844 5.83208 60.8939 5.83208H53.4902V3.19471C53.4902 1.4303 52.0636 0 50.3038 0H38.6962C36.9364 0 35.5105 1.4303 35.5105 3.19471V5.83208H28.1069C27.4861 5.83208 26.9022 5.98953 26.3927 6.26746C25.3008 6.86175 24.5547 8.00747 24.5164 9.33133H3.44304C1.54163 9.33133 0 10.8769 0 12.7833V133.549C0 135.455 1.54163 137.001 3.44304 137.001H85.5577C87.4591 137.001 89.0007 135.455 89.0007 133.549V12.7833C89.0007 10.8769 87.4591 9.33133 85.5577 9.33133ZM38.2863 4.50601C38.2863 3.42312 39.1622 2.54498 40.2423 2.54498H48.757C49.8371 2.54498 50.713 3.42312 50.713 4.50601V5.83208H38.2856V4.50601H38.2863Z" fill="#007C7E"/>
<path d="M82.0981 71.9741V15.7466H78.5511L78.4081 13.4818L64.4884 14.3644V16.2241C64.4884 16.4378 64.4663 16.6462 64.4309 16.8502C64.4287 16.8635 64.4273 16.8768 64.425 16.8901C64.4081 16.9825 64.3852 17.0735 64.3609 17.1636C64.355 17.1851 64.3506 17.2065 64.3447 17.2272C64.3204 17.3107 64.2923 17.3928 64.2621 17.4741C64.2525 17.5 64.2437 17.5266 64.2334 17.5524C64.2031 17.6286 64.1699 17.7025 64.1346 17.7764C64.1205 17.8052 64.1073 17.8348 64.0925 17.8629C64.0571 17.9316 64.0195 17.9989 63.9797 18.0654C63.9613 18.0965 63.9429 18.1275 63.9237 18.1578C63.8846 18.2199 63.8426 18.2798 63.7998 18.3389C63.7762 18.3714 63.7527 18.4032 63.7283 18.435C63.6856 18.4897 63.6413 18.5437 63.5956 18.5962C63.5669 18.6287 63.5381 18.6612 63.5079 18.693C63.4622 18.7418 63.4157 18.7891 63.3678 18.8349C63.3339 18.8674 63.2992 18.8985 63.2638 18.9295C63.2159 18.9717 63.168 19.0131 63.1186 19.0522C63.0788 19.0833 63.0382 19.1128 62.9977 19.1431C62.9483 19.1786 62.8996 19.2141 62.8488 19.2474C62.8038 19.2769 62.7573 19.3043 62.7109 19.3316C62.6608 19.3612 62.6114 19.3908 62.5605 19.4174C62.5096 19.444 62.4573 19.4676 62.4057 19.492C62.3555 19.5157 62.3061 19.5393 62.2553 19.5608C62.1985 19.5844 62.1403 19.6036 62.082 19.6243C62.0326 19.6413 61.9839 19.6606 61.9338 19.6753C61.8697 19.6946 61.8041 19.7101 61.7392 19.7256C61.692 19.7367 61.6463 19.75 61.5984 19.7596C61.5232 19.7744 61.4465 19.784 61.3698 19.7944C61.33 19.7995 61.2909 19.8077 61.2511 19.8114C61.1331 19.8232 61.0137 19.8298 60.8928 19.8298H28.1058C27.485 19.8298 26.9011 19.6724 26.3916 19.3945C26.1881 19.2836 25.9957 19.1535 25.818 19.0064C25.7178 18.9236 25.6226 18.8356 25.5327 18.7433C24.9001 18.0935 24.5101 17.205 24.5101 16.2249V15.7474H6.89973V18.0166L3.35938 18.2414L6.89973 74.3572V130.585H10.4467L10.5898 132.85L46.3082 130.585H82.0981V128.316L85.6384 128.091L82.0981 71.9749V71.9741Z" fill="#F2F2F2"/>
<path d="M64.4856 9.33133C64.4289 7.38952 62.8452 5.83208 60.8951 5.83208H53.4915V3.19471C53.4915 1.4303 52.0649 0 50.305 0H38.6975C36.9376 0 35.5118 1.4303 35.5118 3.19471V5.83208H28.1081C27.4873 5.83208 26.9034 5.98953 26.394 6.26746C26.1905 6.37833 25.9981 6.50843 25.8204 6.65552C25.7223 6.73683 25.6294 6.82332 25.5402 6.91349C25.4938 6.9608 25.4525 7.01254 25.409 7.06281C25.3699 7.1079 25.3279 7.15077 25.291 7.19808C25.2342 7.26978 25.1826 7.34665 25.1318 7.42279C25.1126 7.45087 25.0919 7.47748 25.0735 7.50557C25.016 7.59649 24.9644 7.69111 24.915 7.7872C24.9069 7.80346 24.8973 7.81824 24.8892 7.83451C24.8369 7.94021 24.7904 8.04961 24.7484 8.16048C24.7454 8.16787 24.7417 8.17526 24.7388 8.1834C24.696 8.29945 24.6599 8.41771 24.6289 8.53894C24.6282 8.54337 24.6267 8.54707 24.6253 8.55077C24.595 8.67199 24.5714 8.79543 24.553 8.92035C24.5523 8.92553 24.5508 8.9307 24.5501 8.93587C24.5331 9.0571 24.5235 9.1798 24.5191 9.30398C24.5176 9.34833 24.5117 9.39121 24.5117 9.4363V16.2227C24.5117 17.2028 24.9017 18.0913 25.5343 18.741C25.625 18.8342 25.7201 18.9221 25.8196 19.0042C25.9973 19.1513 26.189 19.2814 26.3932 19.3922C26.9027 19.6694 27.4866 19.8276 28.1074 19.8276H60.8944C61.0153 19.8276 61.1347 19.821 61.2527 19.8091C61.2933 19.8054 61.3316 19.7973 61.3714 19.7921C61.4481 19.7818 61.5248 19.7722 61.6 19.7574C61.6479 19.7478 61.6936 19.7345 61.7408 19.7234C61.8064 19.7079 61.872 19.6923 61.9354 19.6731C61.9856 19.6576 62.0342 19.6391 62.0836 19.6221C62.1419 19.6014 62.2001 19.5822 62.2569 19.5585C62.3077 19.5378 62.3571 19.5135 62.4073 19.4898C62.4596 19.4654 62.512 19.4418 62.5621 19.4151C62.6137 19.3878 62.6631 19.3582 62.7125 19.3294C62.7589 19.3021 62.8054 19.2747 62.8504 19.2451C62.9012 19.2119 62.9499 19.1764 62.9993 19.1409C63.0398 19.1113 63.0804 19.0818 63.1202 19.05C63.1696 19.0108 63.2183 18.9694 63.2655 18.9273C63.3008 18.8962 63.3355 18.8652 63.3694 18.8327C63.4173 18.7868 63.4638 18.7395 63.5095 18.6908C63.539 18.659 63.5685 18.6272 63.5972 18.5939C63.6429 18.5414 63.6872 18.4882 63.7299 18.4328C63.7543 18.401 63.7779 18.3692 63.8014 18.3367C63.8442 18.2776 63.8855 18.2169 63.9253 18.1556C63.9445 18.1253 63.9629 18.0942 63.9813 18.0632C64.0204 17.9967 64.0588 17.9301 64.0941 17.8607C64.1089 17.8318 64.1222 17.803 64.1362 17.7742C64.1716 17.701 64.2047 17.6263 64.235 17.5502C64.2453 17.5243 64.2541 17.4977 64.2637 17.4719C64.2939 17.3905 64.322 17.3092 64.3463 17.225C64.3522 17.2035 64.3566 17.1821 64.3625 17.1614C64.3868 17.0712 64.409 16.9803 64.4267 16.8879C64.4289 16.8746 64.4303 16.8613 64.4325 16.848C64.4679 16.6447 64.4901 16.4363 64.4901 16.2219V9.43556C64.4901 9.40008 64.4856 9.36534 64.4849 9.32985L64.4856 9.33133ZM38.2883 4.506C38.2883 3.42312 39.1642 2.54498 40.2443 2.54498H48.759C49.8391 2.54498 50.7149 3.42312 50.7149 4.506V5.83208H38.2876V4.506H38.2883Z" fill="#CCCCCC"/>
<path d="M34.8747 13.2549C35.9555 13.2549 36.8314 12.3768 36.8314 11.2931C36.8314 10.2095 35.9555 9.33136 34.8747 9.33136C33.7938 9.33136 32.918 10.2095 32.918 11.2931C32.918 12.3768 33.7938 13.2549 34.8747 13.2549Z" fill="#ABABAB"/>
<path d="M52.6719 11.2931C52.6719 12.3768 53.5477 13.2549 54.6286 13.2549C55.7094 13.2549 56.5853 12.3768 56.5853 11.2931C56.5853 10.2095 55.7094 9.33136 54.6286 9.33136C53.5477 9.33136 52.6719 10.2095 52.6719 11.2931Z" fill="#ABABAB"/>
<path d="M36.8308 34.7803H16.6562V36.5832H36.8308V34.7803Z" fill="#007C7E"/>
<path d="M25.6484 42.0967H24.2734V43.4752H25.6484V42.0967Z" fill="#007C7E"/>
<path d="M32.3124 42.0967H26.6016V43.4752H32.3124V42.0967Z" fill="#007C7E"/>
<path d="M36.3314 42.0967H35.168V43.4752H36.3314V42.0967Z" fill="#007C7E"/>
<path d="M42.6751 42.0967H37.2812V43.4752H42.6751V42.0967Z" fill="#007C7E"/>
<path d="M48.5976 42.0967H47.1172V43.4752H48.5976V42.0967Z" fill="#007C7E"/>
<path d="M55.1556 42.0967H49.7617V43.4752H55.1556V42.0967Z" fill="#007C7E"/>
<path d="M59.7038 42.0967H58.1172V43.4752H59.7038V42.0967Z" fill="#007C7E"/>
<path d="M62.4531 42.0967H60.9727V43.4752H62.4531V42.0967Z" fill="#007C7E"/>
<path d="M66.4727 42.0967H63.7227V43.4752H66.4727V42.0967Z" fill="#007C7E"/>
<path d="M73.0286 42.0967H68.375V43.4752H73.0286V42.0967Z" fill="#007C7E"/>
<path d="M23.0019 42.0967H16.6562V43.4752H23.0019V42.0967Z" fill="#007C7E"/>
<path d="M65.4141 45.9138H64.0391V47.2924H65.4141V45.9138Z" fill="#007C7E"/>
<path d="M63.0898 45.9138H57.3789V47.2924H63.0898V45.9138Z" fill="#007C7E"/>
<path d="M54.5228 45.9138H53.3594V47.2924H54.5228V45.9138Z" fill="#007C7E"/>
<path d="M52.4056 45.9138H47.0117V47.2924H52.4056V45.9138Z" fill="#007C7E"/>
<path d="M42.5703 45.9138H41.0898V47.2924H42.5703V45.9138Z" fill="#007C7E"/>
<path d="M39.9251 45.9138H34.5312V47.2924H39.9251V45.9138Z" fill="#007C7E"/>
<path d="M31.571 45.9138H29.9844V47.2924H31.571V45.9138Z" fill="#007C7E"/>
<path d="M28.7148 45.9138H27.2344V47.2924H28.7148V45.9138Z" fill="#007C7E"/>
<path d="M25.9649 45.9138H23.2148V47.2924H25.9649V45.9138Z" fill="#007C7E"/>
<path d="M21.3099 45.9138H16.6562V47.2924H21.3099V45.9138Z" fill="#007C7E"/>
<path d="M73.0293 45.9138H66.6836V47.2924H73.0293V45.9138Z" fill="#007C7E"/>
<path d="M25.6484 49.7316H24.2734V51.1102H25.6484V49.7316Z" fill="#007C7E"/>
<path d="M32.3124 49.7316H26.6016V51.1102H32.3124V49.7316Z" fill="#007C7E"/>
<path d="M36.3314 49.7316H35.168V51.1102H36.3314V49.7316Z" fill="#007C7E"/>
<path d="M42.6751 49.7316H37.2812V51.1102H42.6751V49.7316Z" fill="#007C7E"/>
<path d="M48.5976 49.7316H47.1172V51.1102H48.5976V49.7316Z" fill="#007C7E"/>
<path d="M55.1556 49.7316H49.7617V51.1102H55.1556V49.7316Z" fill="#007C7E"/>
<path d="M59.7038 49.7316H58.1172V51.1102H59.7038V49.7316Z" fill="#007C7E"/>
<path d="M62.4531 49.7316H60.9727V51.1102H62.4531V49.7316Z" fill="#007C7E"/>
<path d="M66.4727 49.7316H63.7227V51.1102H66.4727V49.7316Z" fill="#007C7E"/>
<path d="M73.0286 49.7316H68.375V51.1102H73.0286V49.7316Z" fill="#007C7E"/>
<path d="M23.0019 49.7316H16.6562V51.1102H23.0019V49.7316Z" fill="#007C7E"/>
<path d="M63.0898 53.5487H57.3789V54.9273H63.0898V53.5487Z" fill="#007C7E"/>
<path d="M54.5228 53.5487H53.3594V54.9273H54.5228V53.5487Z" fill="#007C7E"/>
<path d="M52.4056 53.5487H47.0117V54.9273H52.4056V53.5487Z" fill="#007C7E"/>
<path d="M42.5703 53.5487H41.0898V54.9273H42.5703V53.5487Z" fill="#007C7E"/>
<path d="M39.9251 53.5487H34.5312V54.9273H39.9251V53.5487Z" fill="#007C7E"/>
<path d="M31.571 53.5487H29.9844V54.9273H31.571V53.5487Z" fill="#007C7E"/>
<path d="M28.7148 53.5487H27.2344V54.9273H28.7148V53.5487Z" fill="#007C7E"/>
<path d="M25.9649 53.5487H23.2148V54.9273H25.9649V53.5487Z" fill="#007C7E"/>
<path d="M21.3099 53.5487H16.6562V54.9273H21.3099V53.5487Z" fill="#007C7E"/>
<path d="M47.4883 59.8384H46.1133V61.2169H47.4883V59.8384Z" fill="#007C7E"/>
<path d="M54.1523 59.8384H48.4414V61.2169H54.1523V59.8384Z" fill="#007C7E"/>
<path d="M58.1712 59.8384H57.0078V61.2169H58.1712V59.8384Z" fill="#007C7E"/>
<path d="M64.5149 59.8384H59.1211V61.2169H64.5149V59.8384Z" fill="#007C7E"/>
<path d="M70.4375 59.8384H68.957V61.2169H70.4375V59.8384Z" fill="#007C7E"/>
<path d="M73.082 59.8384H71.6016V61.2169H73.082V59.8384Z" fill="#007C7E"/>
<path d="M44.8418 59.8384H38.4961V61.2169H44.8418V59.8384Z" fill="#007C7E"/>
<path d="M73.082 63.6555H68.8516V65.034H73.082V63.6555Z" fill="#007C7E"/>
<path d="M64.4101 63.6555H62.9297V65.034H64.4101V63.6555Z" fill="#007C7E"/>
<path d="M61.7649 63.6555H56.3711V65.034H61.7649V63.6555Z" fill="#007C7E"/>
<path d="M53.4108 63.6555H51.8242V65.034H53.4108V63.6555Z" fill="#007C7E"/>
<path d="M50.5547 63.6555H49.0742V65.034H50.5547V63.6555Z" fill="#007C7E"/>
<path d="M47.8047 63.6555H45.0547V65.034H47.8047V63.6555Z" fill="#007C7E"/>
<path d="M43.1497 63.6555H38.4961V65.034H43.1497V63.6555Z" fill="#007C7E"/>
<path d="M47.4883 67.4725H46.1133V68.8511H47.4883V67.4725Z" fill="#007C7E"/>
<path d="M54.1523 67.4725H48.4414V68.8511H54.1523V67.4725Z" fill="#007C7E"/>
<path d="M58.1712 67.4725H57.0078V68.8511H58.1712V67.4725Z" fill="#007C7E"/>
<path d="M64.5149 67.4725H59.1211V68.8511H64.5149V67.4725Z" fill="#007C7E"/>
<path d="M70.4375 67.4725H68.957V68.8511H70.4375V67.4725Z" fill="#007C7E"/>
<path d="M73.082 67.4725H71.6016V68.8511H73.082V67.4725Z" fill="#007C7E"/>
<path d="M44.8418 67.4725H38.4961V68.8511H44.8418V67.4725Z" fill="#007C7E"/>
<path d="M73.082 71.2904H68.8516V72.669H73.082V71.2904Z" fill="#007C7E"/>
<path d="M64.4101 71.2904H62.9297V72.669H64.4101V71.2904Z" fill="#007C7E"/>
<path d="M61.7649 71.2904H56.3711V72.669H61.7649V71.2904Z" fill="#007C7E"/>
<path d="M53.4108 71.2904H51.8242V72.669H53.4108V71.2904Z" fill="#007C7E"/>
<path d="M50.5547 71.2904H49.0742V72.669H50.5547V71.2904Z" fill="#007C7E"/>
<path d="M47.8047 71.2904H45.0547V72.669H47.8047V71.2904Z" fill="#007C7E"/>
<path d="M43.1497 71.2904H38.4961V72.669H43.1497V71.2904Z" fill="#007C7E"/>
<path d="M34.2128 59.5065H16.6562V72.9994H34.2128V59.5065Z" fill="#007C7E"/>
<path d="M47.4883 78.6267H46.1133V80.0053H47.4883V78.6267Z" fill="#007C7E"/>
<path d="M54.1523 78.6267H48.4414V80.0053H54.1523V78.6267Z" fill="#007C7E"/>
<path d="M58.1712 78.6267H57.0078V80.0053H58.1712V78.6267Z" fill="#007C7E"/>
<path d="M64.5149 78.6267H59.1211V80.0053H64.5149V78.6267Z" fill="#007C7E"/>
<path d="M70.4375 78.6267H68.957V80.0053H70.4375V78.6267Z" fill="#007C7E"/>
<path d="M73.082 78.6267H71.6016V80.0053H73.082V78.6267Z" fill="#007C7E"/>
<path d="M44.8418 78.6267H38.4961V80.0053H44.8418V78.6267Z" fill="#007C7E"/>
<path d="M73.082 82.4438H68.8516V83.8223H73.082V82.4438Z" fill="#007C7E"/>
<path d="M64.4101 82.4438H62.9297V83.8223H64.4101V82.4438Z" fill="#007C7E"/>
<path d="M61.7649 82.4438H56.3711V83.8223H61.7649V82.4438Z" fill="#007C7E"/>
<path d="M53.4108 82.4438H51.8242V83.8223H53.4108V82.4438Z" fill="#007C7E"/>
<path d="M50.5547 82.4438H49.0742V83.8223H50.5547V82.4438Z" fill="#007C7E"/>
<path d="M47.8047 82.4438H45.0547V83.8223H47.8047V82.4438Z" fill="#007C7E"/>
<path d="M43.1497 82.4438H38.4961V83.8223H43.1497V82.4438Z" fill="#007C7E"/>
<path d="M47.4883 86.2616H46.1133V87.6402H47.4883V86.2616Z" fill="#007C7E"/>
<path d="M54.1523 86.2616H48.4414V87.6402H54.1523V86.2616Z" fill="#007C7E"/>
<path d="M58.1712 86.2616H57.0078V87.6402H58.1712V86.2616Z" fill="#007C7E"/>
<path d="M64.5149 86.2616H59.1211V87.6402H64.5149V86.2616Z" fill="#007C7E"/>
<path d="M70.4375 86.2616H68.957V87.6402H70.4375V86.2616Z" fill="#007C7E"/>
<path d="M73.082 86.2616H71.6016V87.6402H73.082V86.2616Z" fill="#007C7E"/>
<path d="M44.8418 86.2616H38.4961V87.6402H44.8418V86.2616Z" fill="#007C7E"/>
<path d="M73.082 90.0787H68.8516V91.4573H73.082V90.0787Z" fill="#007C7E"/>
<path d="M64.4101 90.0787H62.9297V91.4573H64.4101V90.0787Z" fill="#007C7E"/>
<path d="M61.7649 90.0787H56.3711V91.4573H61.7649V90.0787Z" fill="#007C7E"/>
<path d="M53.4108 90.0787H51.8242V91.4573H53.4108V90.0787Z" fill="#007C7E"/>
<path d="M50.5547 90.0787H49.0742V91.4573H50.5547V90.0787Z" fill="#007C7E"/>
<path d="M47.8047 90.0787H45.0547V91.4573H47.8047V90.0787Z" fill="#007C7E"/>
<path d="M43.1497 90.0787H38.4961V91.4573H43.1497V90.0787Z" fill="#007C7E"/>
<path d="M34.2128 78.2955H16.6562V91.7892H34.2128V78.2955Z" fill="#007C7E"/>
<path d="M47.4883 97.415H46.1133V98.7936H47.4883V97.415Z" fill="#007C7E"/>
<path d="M54.1523 97.415H48.4414V98.7936H54.1523V97.415Z" fill="#007C7E"/>
<path d="M58.1712 97.415H57.0078V98.7936H58.1712V97.415Z" fill="#007C7E"/>
<path d="M64.5149 97.415H59.1211V98.7936H64.5149V97.415Z" fill="#007C7E"/>
<path d="M70.4375 97.415H68.957V98.7936H70.4375V97.415Z" fill="#007C7E"/>
<path d="M73.082 97.415H71.6016V98.7936H73.082V97.415Z" fill="#007C7E"/>
<path d="M44.8418 97.415H38.4961V98.7936H44.8418V97.415Z" fill="#007C7E"/>
<path d="M73.082 101.232H68.8516V102.611H73.082V101.232Z" fill="#007C7E"/>
<path d="M64.4101 101.232H62.9297V102.611H64.4101V101.232Z" fill="#007C7E"/>
<path d="M61.7649 101.232H56.3711V102.611H61.7649V101.232Z" fill="#007C7E"/>
<path d="M53.4108 101.232H51.8242V102.611H53.4108V101.232Z" fill="#007C7E"/>
<path d="M50.5547 101.232H49.0742V102.611H50.5547V101.232Z" fill="#007C7E"/>
<path d="M47.8047 101.232H45.0547V102.611H47.8047V101.232Z" fill="#007C7E"/>
<path d="M43.1497 101.232H38.4961V102.611H43.1497V101.232Z" fill="#007C7E"/>
<path d="M47.4883 105.05H46.1133V106.428H47.4883V105.05Z" fill="#007C7E"/>
<path d="M54.1523 105.05H48.4414V106.428H54.1523V105.05Z" fill="#007C7E"/>
<path d="M58.1712 105.05H57.0078V106.428H58.1712V105.05Z" fill="#007C7E"/>
<path d="M64.5149 105.05H59.1211V106.428H64.5149V105.05Z" fill="#007C7E"/>
<path d="M70.4375 105.05H68.957V106.428H70.4375V105.05Z" fill="#007C7E"/>
<path d="M73.082 105.05H71.6016V106.428H73.082V105.05Z" fill="#007C7E"/>
<path d="M44.8418 105.05H38.4961V106.428H44.8418V105.05Z" fill="#007C7E"/>
<path d="M73.082 108.867H68.8516V110.246H73.082V108.867Z" fill="#007C7E"/>
<path d="M64.4101 108.867H62.9297V110.246H64.4101V108.867Z" fill="#007C7E"/>
<path d="M61.7649 108.867H56.3711V110.246H61.7649V108.867Z" fill="#007C7E"/>
<path d="M53.4108 108.867H51.8242V110.246H53.4108V108.867Z" fill="#007C7E"/>
<path d="M50.5547 108.867H49.0742V110.246H50.5547V108.867Z" fill="#007C7E"/>
<path d="M47.8047 108.867H45.0547V110.246H47.8047V108.867Z" fill="#007C7E"/>
<path d="M43.1497 108.867H38.4961V110.246H43.1497V108.867Z" fill="#007C7E"/>
<path d="M34.2128 97.0839H16.6562V110.577H34.2128V97.0839Z" fill="#007C7E"/>
<path d="M66.8808 30.451H68.3398V31.9138C68.3398 32.5857 68.8832 33.1298 69.5526 33.1298H71.328C71.9981 33.1298 72.5408 32.585 72.5408 31.9138V30.451H73.9998C74.67 30.451 75.2126 29.9062 75.2126 29.2351V27.4551C75.2126 26.7832 74.67 26.2392 73.9998 26.2392H72.5408V24.7764C72.5408 24.1045 71.9981 23.5604 71.328 23.5604H69.5526C68.8825 23.5604 68.3398 24.1052 68.3398 24.7764V26.2392H66.8808C66.2106 26.2392 65.668 26.784 65.668 27.4551V29.2351C65.668 29.907 66.2113 30.451 66.8808 30.451Z" fill="#1A6092"/>
<path d="M24.5117 16.2234C24.5117 17.2035 24.9017 18.092 25.5343 18.7418C25.625 18.8349 25.7201 18.9229 25.8196 19.0049C25.9973 19.152 26.189 19.2821 26.3932 19.393C26.9027 19.6702 27.4866 19.8284 28.1074 19.8284H60.8944C61.0153 19.8284 61.1347 19.8217 61.2527 19.8099C61.2933 19.8062 61.3316 19.798 61.3714 19.7929C61.4481 19.7825 61.5248 19.7729 61.6 19.7581C61.6479 19.7485 61.6936 19.7352 61.7408 19.7241C61.8064 19.7086 61.872 19.6931 61.9354 19.6739C61.9856 19.6583 62.0342 19.6399 62.0836 19.6229C62.1419 19.6022 62.2001 19.5829 62.2569 19.5593C62.3077 19.5386 62.3571 19.5142 62.4073 19.4906C62.4596 19.4662 62.512 19.4425 62.5621 19.4159C62.6137 19.3885 62.6631 19.359 62.7125 19.3302C62.7589 19.3028 62.8054 19.2755 62.8504 19.2459C62.9012 19.2126 62.9499 19.1771 62.9993 19.1417C63.0398 19.1121 63.0804 19.0825 63.1202 19.0507C63.1696 19.0116 63.2183 18.9702 63.2655 18.928C63.3008 18.897 63.3355 18.8659 63.3694 18.8334C63.4173 18.7876 63.4638 18.7403 63.5095 18.6915C63.539 18.6597 63.5685 18.6279 63.5972 18.5947C63.6429 18.5422 63.6872 18.489 63.7299 18.4335C63.7543 18.4017 63.7779 18.37 63.8014 18.3374C63.8442 18.2783 63.8855 18.2177 63.9253 18.1563C63.9445 18.126 63.9629 18.095 63.9813 18.0639C64.0204 17.9974 64.0588 17.9309 64.0941 17.8614C64.1089 17.8326 64.1222 17.8038 64.1362 17.7749C64.1716 17.7017 64.2047 17.6271 64.235 17.551C64.2453 17.5251 64.2541 17.4985 64.2637 17.4726C64.2939 17.3913 64.322 17.31 64.3463 17.2257C64.3522 17.2043 64.3566 17.1828 64.3625 17.1622C64.3868 17.072 64.409 16.9811 64.4267 16.8887C64.4289 16.8754 64.4303 16.862 64.4325 16.8487C64.4502 16.7475 64.465 16.6455 64.4738 16.5412H31.8092C29.823 16.5412 28.2135 14.9269 28.2135 12.9363V6.14994C28.2135 6.04276 28.2202 5.93705 28.2298 5.83209H28.1081C27.4873 5.83209 26.9034 5.98954 26.394 6.26747C26.1905 6.37834 25.9981 6.50844 25.8204 6.65553C25.7223 6.73684 25.6294 6.82332 25.5402 6.9135C25.4938 6.96081 25.4525 7.01255 25.409 7.06282C25.3699 7.10791 25.3279 7.15078 25.291 7.19809C25.2342 7.26979 25.1826 7.34666 25.1318 7.42279C25.1126 7.45088 25.0919 7.47749 25.0735 7.50558C25.016 7.5965 24.9644 7.69111 24.915 7.78721C24.9069 7.80347 24.8973 7.81825 24.8892 7.83451C24.8369 7.94022 24.7904 8.04961 24.7484 8.16049C24.7454 8.16788 24.7417 8.17527 24.7388 8.1834C24.696 8.29946 24.6599 8.41772 24.6289 8.53895C24.6282 8.54338 24.6267 8.54708 24.6253 8.55077C24.595 8.672 24.5714 8.79544 24.553 8.92036C24.5523 8.92554 24.5508 8.93071 24.5501 8.93588C24.5331 9.05711 24.5235 9.17981 24.5191 9.30399C24.5176 9.34834 24.5117 9.39122 24.5117 9.43631V16.2227V16.2234Z" fill="#ABABAB"/>
<path d="M10.5922 132.85L46.3099 130.585H10.4492L10.5922 132.85Z" fill="#B3B3B3"/>
<path d="M3.35938 18.2406L6.899 74.3565V18.0159L3.35938 18.2406Z" fill="#B3B3B3"/>
<path d="M85.638 128.091L82.0977 71.9741V128.315L85.638 128.091Z" fill="#B3B3B3"/>
<path d="M78.5509 15.7466L78.4079 13.4818L64.4883 14.3644V15.7466H78.5509Z" fill="#B3B3B3"/>
</g>
<defs>
<clipPath id="clip0_137_256">
<rect width="89" height="137" fill="white"/>
</clipPath>
</defs>
</svg>
