<svg width="109" height="108" viewBox="0 0 109 108" fill="none" xmlns="http://www.w3.org/2000/svg">
<path d="M54.5965 106.165C83.4269 106.112 106.785 82.7029 106.785 53.8325C106.785 24.9293 83.3739 1.5 54.4985 1.5C25.6232 1.5 2.21527 24.9292 2.21191 53.8291L54.5965 106.165ZM54.5965 106.165C54.5636 106.163 54.5303 106.162 54.4968 106.162C25.6223 106.161 2.212 82.7318 2.21191 53.8293L54.5965 106.165Z" fill="white" stroke="#E87400" stroke-width="3"/>
<path d="M32.7368 55.7427C29.9864 55.7427 27.7568 53.5131 27.7568 50.7628V42.9521C27.7568 38.2577 31.5624 34.4521 36.2568 34.4521H40.5267C45.2211 34.4521 49.0267 38.2577 49.0267 42.9521V56.0446C49.0267 56.7273 48.9475 57.3565 48.7637 57.9323C47.6964 61.2766 43.7659 71.3954 33.9015 77.7269C33.0956 78.2442 32.2608 78.1793 31.5864 77.7525C30.8873 77.3102 30.3533 76.4626 30.3533 75.3974C30.3533 74.26 31.0157 73.111 32.108 72.3494C33.9024 71.0984 36.3871 69.0574 38.687 66.101C40.4657 63.8145 40.3696 61.1379 39.0778 59.0944C37.8168 57.0995 35.4564 55.7427 32.7368 55.7427Z" fill="#E87400" stroke="#E87400" stroke-width="3"/>
<path d="M61.7471 42.9521C61.7471 38.2577 65.5526 34.4521 70.2471 34.4521H74.517C79.2114 34.4521 83.017 38.2577 83.017 42.9521V56.0446C83.017 56.7273 82.9377 57.3565 82.754 57.9323C81.6866 61.2766 77.7562 71.3954 67.8917 77.7269C67.0858 78.2442 66.2511 78.1793 65.5766 77.7525C64.8776 77.3102 64.3436 76.4626 64.3436 75.3974C64.3436 74.26 65.0059 73.111 66.0983 72.3494C67.8927 71.0984 70.3773 69.0574 72.6772 66.101C74.456 63.8145 74.3598 61.1379 73.0681 59.0944C71.8071 57.0995 69.4466 55.7427 66.727 55.7427C63.9767 55.7427 61.7471 53.5131 61.7471 50.7628V42.9521Z" fill="#E87400" stroke="#E87400" stroke-width="3"/>
</svg>
