<svg width="32" height="32" viewBox="0 0 32 32" fill="none" xmlns="http://www.w3.org/2000/svg">
<path d="M14.668 5.33331H5.33464C4.62739 5.33331 3.94911 5.61426 3.44902 6.11436C2.94892 6.61446 2.66797 7.29273 2.66797 7.99998V26.6666C2.66797 27.3739 2.94892 28.0522 3.44902 28.5523C3.94911 29.0524 4.62739 29.3333 5.33464 29.3333H24.0013C24.7085 29.3333 25.3868 29.0524 25.8869 28.5523C26.387 28.0522 26.668 27.3739 26.668 26.6666V17.3333M24.668 3.33331C25.1984 2.80288 25.9178 2.50488 26.668 2.50488C27.4181 2.50488 28.1375 2.80288 28.668 3.33331C29.1984 3.86374 29.4964 4.58316 29.4964 5.33331C29.4964 6.08346 29.1984 6.80288 28.668 7.33331L16.0013 20L10.668 21.3333L12.0013 16L24.668 3.33331Z" stroke="#E87400" stroke-width="3" stroke-linecap="round" stroke-linejoin="round"/>
</svg>
