<svg width="131" height="52" viewBox="0 0 131 52" fill="none" xmlns="http://www.w3.org/2000/svg">
<path d="M27.6387 48.0236C27.6387 47.8834 27.6966 47.7581 27.7594 47.5879C27.8271 47.4126 27.8947 47.2373 27.9672 47.062C28.1121 46.7164 28.2618 46.3709 28.4261 46.0353C28.8029 45.2591 29.228 44.5078 29.7062 43.7917C29.7497 43.7266 29.8076 43.6514 29.8849 43.6514C29.9816 43.6514 30.0443 43.7516 30.0878 43.8417C30.5178 44.6981 31.1989 45.4193 32.0249 45.8701C32.2858 46.0153 32.5805 46.1505 32.7012 46.431C32.8268 46.7064 32.735 47.032 32.6433 47.3224C32.4404 47.9685 32.2326 48.6246 31.8655 49.1855C31.4984 49.7464 30.9429 50.2172 30.2955 50.3073C29.6917 50.3925 29.0782 50.142 28.6193 49.7264C28.2135 49.3558 27.914 48.8449 27.7063 48.3291C27.658 48.2139 27.6435 48.1187 27.6435 48.0286L27.6387 48.0236Z" fill="#E87400"/>
<path d="M23.1602 48.7296C23.1602 48.5893 23.2181 48.4641 23.2809 48.2939C23.3486 48.1186 23.4162 47.9433 23.4886 47.768C23.6336 47.4224 23.7833 47.0769 23.9476 46.7413C24.3243 45.965 24.7494 45.2138 25.2277 44.4977C25.2712 44.4325 25.3291 44.3574 25.4064 44.3574C25.503 44.3574 25.5658 44.4576 25.6093 44.5477C26.0392 45.4041 26.7204 46.1253 27.5464 46.5761C27.8073 46.7213 28.1019 46.8565 28.2227 47.137C28.3483 47.4124 28.2565 47.738 28.1647 48.0284C27.9618 48.6745 27.7541 49.3306 27.387 49.8915C27.0199 50.4524 26.4643 50.9232 25.817 51.0133C25.2132 51.0984 24.5997 50.848 24.1408 50.4324C23.735 50.0617 23.4355 49.5509 23.2278 49.0351C23.1795 48.9199 23.165 48.8247 23.165 48.7346L23.1602 48.7296Z" fill="#E87400"/>
<path d="M40.9426 4.17741C40.9136 4.48291 40.8266 5.05885 40.6769 5.90524C40.5319 6.75663 40.3387 7.46279 40.1068 8.03873C39.9378 8.67477 39.5562 9.426 38.9716 10.3124C38.1842 11.5144 37.2568 12.4209 36.1698 13.0319C35.822 13.2072 35.5274 13.4075 35.2955 13.6179C35.0443 13.8582 34.8994 14.2188 34.7834 14.5444C34.5999 15.0452 34.4791 15.566 34.3632 16.0819C34.0685 17.4241 33.9767 18.7913 33.7787 20.1535C33.7787 20.5442 33.6579 20.9749 33.5999 21.3655C33.5371 21.7862 33.4792 22.2069 33.4164 22.6276C33.3004 23.4189 33.1603 24.1951 33.0106 24.9764C32.9285 25.3721 32.856 25.7577 32.7835 26.1333C32.7111 26.5089 32.629 26.8845 32.5275 27.2602C31.8657 29.9295 30.9237 32.4637 29.7064 34.8726C28.4891 37.2816 27.0254 39.405 25.3057 41.253C23.5859 43.0961 21.6247 44.5735 19.4267 45.6753C15.9003 47.4482 11.7991 47.9991 8.1181 46.4015C6.17617 45.5601 4.43713 44.1828 3.16666 42.435C2.19086 41.0928 1.45177 39.5703 0.94938 37.8725C0.44699 36.1747 0.147488 34.3868 0.0460433 32.5087C-0.185829 28.2217 0.442159 23.499 2.29231 19.6277C2.99759 18.1553 3.79948 16.7229 4.75112 15.4008C5.7559 14.0035 6.90077 12.8316 8.1326 11.6546C8.75092 11.0637 9.44171 10.5328 10.1808 10.0821C11.0793 9.53618 12.0551 9.11549 13.0551 8.85005C15.7554 8.21401 12.3836 9.3058 12.0551 9.56623C10.4127 10.8834 9.06975 12.6312 8.28235 14.6245C8.25819 14.6445 8.23404 14.6696 8.20989 14.6946C7.93937 14.955 7.68334 15.2305 7.43215 15.5109C7.37901 15.571 7.33071 15.6261 7.27757 15.6862C5.95879 17.2187 5.07478 18.9516 4.31153 20.8246C3.53862 22.7277 3.11835 24.7811 3.06522 26.8445C3.0314 28.0815 3.13768 29.3285 3.37438 30.5455C3.60142 31.7124 4.06034 32.8092 4.6062 33.8559C5.35979 35.2933 6.32592 36.5453 7.49978 37.6071C8.67363 38.6688 9.97792 39.39 11.403 39.7656C13.5333 40.3065 15.6008 40.3315 17.6007 39.8457C19.6006 39.3549 21.4459 38.5035 23.1367 37.2816C24.8274 36.0646 26.3056 34.5521 27.5712 32.7441C28.8369 30.9412 29.803 28.998 30.4648 26.9146C30.6677 26.3086 30.8464 25.6625 31.0059 24.9764C31.1266 24.2052 31.2136 23.3688 31.2619 22.4723C31.3102 21.5759 31.3343 20.6644 31.3247 19.7379C31.2957 17.2187 30.972 14.7197 30.7643 12.2156C30.7064 11.5044 30.6677 10.7932 30.8464 10.1021C31.0155 9.44603 31.3295 8.88511 31.7449 8.36426C32.1217 7.88848 32.5951 7.52789 33.2135 7.51287C33.5275 7.50786 33.827 7.61303 34.1313 7.68315C34.4356 7.75326 34.7641 7.77329 35.0733 7.79333C35.5757 7.82838 36.0781 7.82838 36.5756 7.78832C37.0249 7.75326 37.4693 7.66311 37.8606 7.4077C38.3533 7.06714 38.7156 6.59136 38.9523 5.95532C39.5417 4.2325 40.0489 3.37109 40.4836 3.37109C40.7783 3.37109 40.9281 3.63653 40.9281 4.18242L40.9426 4.17741Z" fill="#017072"/>
<path d="M48.9276 23.3841C48.9034 24.3507 48.8551 25.5276 48.7875 26.9249C48.715 28.3222 48.6667 29.3038 48.6425 29.8747C48.5701 31.8279 48.3817 33.4606 48.0725 34.7727C47.7634 36.0849 47.4735 37.1216 47.2127 37.8878C46.9953 38.629 46.6958 39.5004 46.2997 40.5021C45.9035 41.5037 45.3577 42.5604 44.6524 43.6723C43.9471 44.7841 43.2418 45.6856 42.5221 46.3817C41.4014 47.3733 40.2178 47.8541 38.9812 47.8291C38.3387 47.804 37.7542 47.6337 37.2277 47.3082C36.7253 46.9626 36.2615 46.542 35.8316 46.0461C35.45 45.7256 35.2133 45.5153 35.1166 45.4151C34.7833 45.0946 34.6143 44.759 34.6143 44.4135C34.6143 44.1681 34.735 43.8826 34.9717 43.5621C35.2084 43.2416 35.4838 42.881 35.7929 42.4853C35.9379 42.29 36.1263 41.9895 36.3678 41.5939C36.6045 41.1982 36.817 40.6724 36.9958 40.0163C37.1745 39.3602 37.3243 38.5038 37.445 37.4371C37.5416 36.3753 37.5996 35.4588 37.6238 34.6926L37.6962 32.3938C37.7204 31.6025 37.7204 30.7762 37.6962 29.9098C37.7445 27.636 38.1262 25.162 38.8411 22.4926C39.3435 20.6897 40.1406 18.2507 41.2371 15.1857C41.3096 14.9904 41.3772 14.8501 41.4497 14.78C41.5221 14.7049 41.5801 14.6698 41.6284 14.6698C41.7975 14.6949 41.8651 15.1656 41.8458 16.0771C41.8216 16.5229 41.7733 17.239 41.7009 18.2307C41.6284 19.2423 41.5801 19.8884 41.5559 20.1588L40.7685 29.8046C40.7202 30.9665 40.5898 32.2886 40.3773 33.7711C40.1406 35.2034 39.7927 36.6007 39.3387 37.9629C38.7203 39.9662 37.9184 41.684 36.9426 43.1164C36.991 43.2165 37.1793 43.2666 37.5175 43.2666L38.4112 43.3017C39.7251 43.3517 41.0342 42.8359 42.3482 41.7641C43.6573 40.6874 44.493 39.5505 44.8505 38.3536C45.2079 37.1566 45.4012 35.9496 45.4205 34.7377C45.5896 31.9431 45.72 29.5141 45.8166 27.4507C45.9132 25.3874 46.063 23.7096 46.2658 22.4275C46.4687 21.1404 46.7972 19.7431 47.2513 18.2357C47.7054 16.7282 48.4203 14.775 49.3961 12.3761C49.5362 12.1307 49.6715 12.0305 49.7874 12.0806C49.9082 12.1307 49.855 13.1023 49.628 14.9904C49.401 16.8835 49.1691 19.683 48.9276 23.3891V23.3841Z" fill="#017072"/>
<path d="M52.5898 20.5342C52.5898 20.384 52.6526 20.2437 52.7203 20.0634C52.7927 19.8731 52.8652 19.6828 52.9425 19.4925C53.0971 19.1169 53.2613 18.7463 53.44 18.3757C53.8458 17.5343 54.3096 16.718 54.8264 15.9467C54.8748 15.8766 54.9327 15.7965 55.0197 15.7914C55.1259 15.7914 55.1936 15.9016 55.2419 15.9968C55.7056 16.9283 56.4496 17.7046 57.3384 18.1954C57.6186 18.3506 57.9374 18.5009 58.0727 18.8014C58.2079 19.1019 58.1065 19.4524 58.0099 19.7679C57.7877 20.4691 57.5654 21.1803 57.1645 21.7862C56.7635 22.3922 56.1645 22.9031 55.4593 23.0032C54.8071 23.0984 54.1357 22.8229 53.6429 22.3722C53.2033 21.9715 52.8797 21.4156 52.6575 20.8597C52.6092 20.7345 52.5898 20.6294 52.5898 20.5342Z" fill="#E87400"/>
<path d="M55.3282 27.2403C55.1108 27.2403 54.8935 27.6059 54.6519 28.3371C54.4104 29.0633 54.1205 29.7093 53.7727 30.2452C53.4298 30.7911 52.937 31.1366 52.2897 31.2869C51.6424 31.4321 50.9999 31.2869 50.3526 30.8412C49.285 30.0298 48.744 28.5775 48.744 26.4991V24.8714C48.3624 24.9716 47.8696 25.5275 47.2562 26.5391C46.6475 27.5558 46.1113 29.1234 45.6282 31.2468V31.5073C45.5847 33.776 45.8794 35.634 46.5219 37.0714C47.2417 38.5287 48.2416 39.28 49.5266 39.3351C50.7922 39.2549 51.8695 38.5788 52.7486 37.2967C53.6326 36.0096 54.3283 34.3619 54.8451 32.3637C55.3572 30.3554 55.6229 28.913 55.647 28.0216C55.6953 27.5057 55.5891 27.2403 55.3234 27.2403H55.3282Z" fill="#017072"/>
<path d="M64.4731 14.7546C64.3088 14.6745 64.1107 14.8147 63.903 15.1603C63.6373 15.7062 63.3475 16.3272 63.0239 17.0283C62.7002 17.7345 62.3959 18.4857 62.1109 19.272C61.8258 20.0633 61.565 20.8746 61.3379 21.6859C61.1109 22.4973 60.9515 23.2936 60.8549 24.0598C60.6906 25.372 60.6278 27.2701 60.6761 29.7541C60.7196 32.2332 60.71 34.1614 60.6375 35.5186C60.565 36.8758 60.3863 38.2781 60.1013 39.7305C59.8163 41.1728 59.6714 41.924 59.6714 41.9741C59.6279 42.1694 59.6714 42.3097 59.8163 42.3998C59.9612 42.485 60.1641 42.4048 60.4249 42.1594C60.6423 41.909 60.9177 41.5184 61.2655 40.9725C61.6133 40.4266 62.0819 39.3348 62.676 37.6921C63.2702 36.0444 63.6712 34.1614 63.8596 32.0329C63.9803 31.0513 64.048 29.8343 64.0769 28.3969C64.0963 26.9646 64.1349 25.362 64.1832 23.574C64.1832 23.1533 64.2025 22.5123 64.2315 21.6459C64.2702 20.7795 64.3088 19.903 64.3571 18.9965C64.4054 18.1001 64.4586 17.2787 64.5165 16.5475C64.5793 15.8214 64.6325 15.3556 64.6808 15.1553C64.7049 14.9599 64.6325 14.8197 64.4634 14.7496L64.4731 14.7546Z" fill="#017072"/>
<path d="M78.7044 0.390639C78.6899 0.646057 78.5788 0.946548 78.3614 1.29712C77.9363 2.10845 77.3131 2.98488 76.4871 3.9164C75.6659 4.84292 74.6901 5.6893 73.5694 6.45556C71.8303 7.61746 70.2652 8.44381 68.8788 8.93962C67.4924 9.43042 65.7678 9.64077 63.6906 9.57065C62.8549 9.50054 62.1207 9.36031 61.4927 9.16499C60.8599 8.96967 60.0821 8.79939 59.1643 8.65916C58.2465 8.52895 57.4349 8.56901 56.7345 8.78937C56.0243 9.01474 55.4302 9.2952 54.9423 9.64077C54.4544 9.98633 54.0003 10.3419 53.58 10.6975C53.1646 11.0581 52.8458 11.1633 52.6332 11.013C52.5124 10.8427 52.6139 10.4621 52.9375 9.86613C53.2612 9.27517 53.6863 8.66417 54.208 8.04816C55.3529 6.61582 56.6523 5.41886 58.1064 4.45228C59.7778 3.33545 61.2173 2.77955 62.4347 2.77955C62.8453 2.77955 64.0481 2.97486 66.048 3.37552C67.0286 3.5458 68.0286 3.63094 69.0527 3.63094C70.8159 3.63094 72.4583 3.29539 73.9558 2.63431C74.835 2.23365 75.6514 1.78292 76.3856 1.25706C77.1247 0.741212 77.6271 0.395647 77.8735 0.240393C78.1247 0.0751229 78.3372 0 78.5015 0C78.6464 0 78.7092 0.130213 78.6995 0.395647L78.7044 0.390639Z" fill="#017072"/>
<path d="M1.11816 9.50092C3.11323 5.43928 6.65412 2.13387 10.881 0.751612C17.5715 -1.50708 24.6629 1.62304 28.5081 7.54272C28.9139 8.16373 29.2762 8.80478 29.6047 9.47087C29.339 9.21545 29.0878 8.95503 28.8318 8.69961C28.0685 7.95339 27.2714 7.21719 26.4454 6.56111C17.6536 -0.520469 8.54291 1.59299 1.11816 9.50092Z" fill="#E87400"/>
<path d="M4.6875 11.5594C5.4749 9.56612 6.81783 7.81325 8.46026 6.4961C13.4793 2.49956 20.3969 3.52123 24.3097 8.61456C25.0005 9.50602 25.5705 10.4876 25.9811 11.5444C25.1599 10.8532 24.3435 10.1371 23.4788 9.52605C18.7303 6.04536 13.518 5.55456 8.47475 8.68468C7.11733 9.496 5.9 10.5177 4.6875 11.5594Z" fill="#E87400"/>
<path d="M22.7598 14.6093C22.7212 14.5342 22.2961 14.1636 22.2478 14.1235C22.0594 13.9783 21.8951 13.793 21.7116 13.6377C21.5183 13.4675 21.3154 13.3022 21.1077 13.1469C20.272 12.5059 19.3494 11.965 18.3591 11.6194C17.5282 11.324 16.6442 11.1687 15.765 11.1787C13.9052 11.1987 12.0889 11.8648 10.5141 12.8615C10.3546 12.9616 10.2001 13.0668 10.0455 13.172C9.80394 13.3372 9.56724 13.5175 9.33537 13.7028C8.97307 13.9933 8.62043 14.3038 8.28711 14.6294C9.07451 12.6361 10.4174 10.8882 12.0599 9.57109C12.0599 9.57109 12.0647 9.56608 12.0695 9.56107C12.7217 9.04523 13.4946 8.71469 14.311 8.60951C15.6104 8.44424 16.934 8.56444 18.1997 9.04022C18.6296 9.20549 19.045 9.42084 19.4363 9.68627C20.6681 10.5126 21.6826 11.7697 22.2864 13.1069C22.5038 13.5826 22.6197 14.1035 22.7502 14.6143L22.7598 14.6093Z" fill="#E87400"/>
<path d="M10.7841 17.3887C11.0546 15.6158 12.3783 14.1434 13.9965 13.5274C16.5616 12.5208 19.6243 13.888 20.5759 16.5674C20.6725 16.8378 20.745 17.1183 20.7836 17.4038C20.6532 17.3437 20.5324 17.2786 20.4117 17.2185C18.9866 16.4522 17.3538 15.736 15.7839 15.7561C14.0642 15.721 12.3348 16.5774 10.7793 17.3937L10.7841 17.3887Z" fill="#E87400"/>
<path d="M99.5681 12.195C104.331 16.5621 108.896 16.5621 113.263 12.195C111.91 12.5706 110.2 11.8394 108.128 10.0014C105.553 7.48727 102.669 7.46223 99.4763 9.93127C103.085 12.7409 106.602 13.6273 110.036 12.5906C107.278 14.3886 104.428 14.1982 101.486 12.0147C99.655 10.5022 98.0077 10.0114 96.5537 10.5423C97.6696 10.8377 98.6985 11.4087 99.5632 12.2L99.5681 12.195Z" fill="#E87400"/>
<path d="M87.9258 19.081C87.9306 18.9157 87.9934 18.7655 88.0659 18.5652C88.1432 18.3548 88.2253 18.1495 88.3122 17.9441C88.4813 17.5335 88.6649 17.1228 88.8581 16.7221C89.3025 15.8006 89.8097 14.9092 90.3749 14.0628C90.4281 13.9827 90.4909 13.8975 90.5875 13.8975C90.7034 13.8975 90.7759 14.0177 90.829 14.1229C91.3362 15.1396 92.1478 15.9909 93.1236 16.5268C93.4328 16.6971 93.7806 16.8624 93.9255 17.1879C94.0704 17.5184 93.9641 17.9041 93.8579 18.2446C93.6163 19.0109 93.37 19.7872 92.9352 20.4532C92.5004 21.1193 91.8386 21.6752 91.0706 21.7854C90.3556 21.8856 89.6262 21.5901 89.0851 21.0943C88.6021 20.6536 88.2494 20.0476 88.0031 19.4366C87.9499 19.3014 87.9258 19.1862 87.9306 19.076L87.9258 19.081Z" fill="#E87400"/>
<path d="M82.6172 19.9218C82.622 19.7565 82.6848 19.6063 82.7573 19.406C82.8346 19.1956 82.9167 18.9903 83.0036 18.785C83.1727 18.3743 83.3563 17.9636 83.5495 17.563C83.9939 16.6415 84.5011 15.75 85.0663 14.9036C85.1195 14.8235 85.1823 14.7383 85.2789 14.7383C85.3948 14.7383 85.4673 14.8585 85.5204 14.9637C86.0276 15.9804 86.8392 16.8318 87.815 17.3676C88.1242 17.5379 88.472 17.7032 88.6169 18.0287C88.7618 18.3593 88.6555 18.7449 88.5493 19.0855C88.3077 19.8517 88.0614 20.628 87.6266 21.2941C87.1918 21.9602 86.53 22.5161 85.762 22.6262C85.047 22.7264 84.3176 22.4309 83.7765 21.9351C83.2935 21.4944 82.9408 20.8884 82.6945 20.2774C82.6413 20.1422 82.6172 20.027 82.622 19.9168L82.6172 19.9218Z" fill="#E87400"/>
<path d="M112.52 48.2034C112.524 48.0382 112.587 47.8879 112.66 47.6876C112.737 47.4772 112.819 47.2719 112.906 47.0666C113.075 46.6559 113.259 46.2452 113.452 45.8446C113.896 44.9231 114.403 44.0316 114.969 43.1852C115.022 43.1051 115.085 43.02 115.181 43.02C115.297 43.02 115.37 43.1402 115.423 43.2453C115.93 44.262 116.742 45.1134 117.717 45.6493C118.027 45.8195 118.374 45.9848 118.519 46.3103C118.664 46.6409 118.558 47.0265 118.452 47.3671C118.21 48.1333 117.964 48.9096 117.529 49.5757C117.094 50.2418 116.432 50.7977 115.664 50.9079C114.949 51.008 114.22 50.7125 113.679 50.2167C113.196 49.776 112.843 49.17 112.597 48.559C112.544 48.4238 112.52 48.3086 112.524 48.1984L112.52 48.2034Z" fill="#E87400"/>
<path d="M111.205 31.1706C111.21 31.0053 111.273 30.8551 111.345 30.6548C111.422 30.4444 111.505 30.2391 111.592 30.0337C111.761 29.6231 111.944 29.2124 112.137 28.8117C112.582 27.8902 113.089 26.9988 113.654 26.1524C113.707 26.0723 113.77 25.9871 113.867 25.9871C113.983 25.9871 114.055 26.1073 114.108 26.2125C114.616 27.2292 115.427 28.0805 116.403 28.6164C116.712 28.7867 117.06 28.952 117.205 29.2775C117.35 29.608 117.243 29.9937 117.137 30.3342C116.896 31.1005 116.649 31.8768 116.214 32.5428C115.78 33.2089 115.118 33.7648 114.35 33.875C113.635 33.9752 112.905 33.6797 112.364 33.1839C111.881 32.7432 111.529 32.1372 111.282 31.5262C111.229 31.391 111.205 31.2758 111.21 31.1656L111.205 31.1706Z" fill="#E87400"/>
<path d="M84.6944 51.0033C85.3127 47.7279 85.8151 47.152 88.67 46.4408C85.8151 45.7297 85.3176 45.1537 84.6944 41.8784C84.0761 45.1537 83.5737 45.7297 80.7188 46.4408C83.5737 47.152 84.0712 47.7279 84.6944 51.0033Z" fill="#E87400"/>
<path d="M95.4522 44.8484C95.9594 42.164 96.37 41.6933 98.708 41.1123C96.37 40.5314 95.9594 40.0606 95.4522 37.3762C94.9449 40.0606 94.5343 40.5314 92.1963 41.1123C94.5343 41.6933 94.9449 42.164 95.4522 44.8484Z" fill="#E87400"/>
<path d="M73.3226 47.5225C74.1487 43.1554 74.8201 42.3841 78.6267 41.4376C74.8201 40.491 74.1487 39.7197 73.3226 35.3526C72.4966 39.7197 71.8251 40.491 68.0186 41.4376C71.8251 42.3841 72.4966 43.1554 73.3226 47.5225Z" fill="#E87400"/>
<path d="M117.702 10.1867C118.393 6.52567 118.953 5.88462 122.141 5.09333C118.953 4.30204 118.393 3.65598 117.702 0C117.011 3.66099 116.451 4.30204 113.263 5.09333C116.451 5.88462 117.011 6.53068 117.702 10.1867Z" fill="#E87400"/>
<path d="M19.0932 22.2712L15.4219 26.1976L11.6347 22.3914C10.7362 21.4899 10.7168 20.0075 11.5864 19.076C12.0211 18.6102 12.596 18.3748 13.1757 18.3648C13.7553 18.3548 14.3399 18.5752 14.7891 19.0259L15.3301 19.5718L15.8567 19.0109C16.7262 18.0794 18.1609 18.0593 19.0546 18.9608C19.5038 19.4115 19.7309 20.0075 19.7454 20.6085C19.7502 21.2095 19.5377 21.8105 19.1077 22.2762L19.0932 22.2712Z" fill="#E87400"/>
<path d="M122.847 14.1982C122.833 14.4536 122.804 14.714 122.76 14.9695C122.76 14.9945 122.751 15.0195 122.746 15.0446C122.697 15.295 122.635 15.5454 122.567 15.7908C122.499 16.0362 122.427 16.2816 122.354 16.527C122.345 16.5571 122.34 16.5871 122.33 16.6172C122.316 16.6622 122.306 16.7023 122.292 16.7474C122.21 17.0429 122.118 17.3333 122.021 17.6238C121.76 18.4001 121.195 19.6471 120.649 20.3933C120.611 20.4484 120.553 20.5386 120.504 20.5987C120.379 20.7589 120.229 20.9442 120.079 21.0845C119.934 21.2247 119.78 21.3449 119.62 21.4501C119.456 21.5502 119.301 21.6304 119.128 21.6854C118.896 21.7606 118.664 21.7956 118.422 21.8006C118.297 21.8056 118.181 21.7856 118.065 21.7656C117.949 21.7405 117.833 21.7005 117.722 21.6604C117.408 21.5452 117.103 21.41 116.785 21.3198C116.543 21.2547 116.297 21.2097 116.046 21.1796C115.741 21.1496 115.442 21.1295 115.142 21.2297C114.751 21.3599 114.505 21.7405 114.253 22.056C113.939 22.4467 113.625 22.8273 113.302 23.2079C112.654 23.9692 111.993 24.7104 111.307 25.4266C110.848 25.9124 110.321 26.328 109.828 26.7738C109.645 26.929 109.457 27.0793 109.263 27.2295C107.201 28.8221 104.983 30.2044 102.582 31.3162C100.182 32.428 97.6069 33.2794 95.0031 33.8353C92.3994 34.3912 89.7425 34.5915 87.0857 34.5765C85.2017 34.5665 83.2598 34.3411 81.4531 33.8754C79.6464 33.4096 77.9895 32.6884 76.376 31.822C74.7868 30.9656 73.3037 29.8538 72.0671 28.5066C70.8304 27.1594 70.0092 25.6269 69.4537 23.9241C69.2508 23.3031 69.0914 22.6721 68.9754 22.026C68.589 19.8675 68.6904 17.5587 69.4199 15.4703C70.5019 12.3502 73.0574 9.99132 75.9413 8.68919C79.4194 7.11662 83.5158 7.01645 87.1919 7.87285C88.0663 8.07819 89.0662 8.09321 89.9696 8.16333C90.9792 8.24346 91.9936 8.26349 93.0032 8.17835C96.7084 7.86284 99.6551 6.13501 101.766 2.97985C99.6454 4.76277 97.3991 6.30529 94.7423 7.07655C92.0854 7.84781 89.4913 7.69256 86.8393 7.01145C86.9842 6.66588 87.0712 6.32031 87.2547 5.99979C87.8537 4.94807 88.3706 3.97147 89.2546 3.11507C91.5975 0.846363 94.4186 -0.215373 97.6262 0.0450525C97.9354 0.0700934 98.2204 0.155233 98.515 0.225347C99.573 0.475757 100.597 0.836347 101.665 1.04669C102.326 1.1769 102.979 1.22699 103.65 1.14185C104.36 1.0517 104.95 0.731175 105.568 0.365577C104.805 3.32542 103.563 5.91966 101.138 7.79773C98.7083 9.6758 95.9499 10.4771 92.9163 10.5272C90.4913 10.5673 88.1194 9.89116 85.7234 9.6107C82.6269 9.25011 79.3421 9.43541 76.4533 10.7375C74.98 11.3986 73.3955 12.3702 72.5212 13.8126C71.6468 15.2549 71.2942 16.9928 71.4922 18.6705C71.8159 21.425 73.5066 23.7037 75.6804 25.2212C79.8783 28.156 84.878 28.9373 89.7812 29.0224C94.4476 29.1076 99.0126 28.2662 103.384 26.8439C105.563 26.1327 107.408 25.1361 109.263 23.9992C111.08 22.8874 112.297 21.5402 113.737 20.0377C113.765 20.0077 113.78 19.9726 113.809 19.9376C114.128 19.5219 114.418 19.1313 114.785 18.7506C115.157 18.37 115.543 17.9644 115.963 17.6288C116.408 17.2732 116.92 16.9477 117.48 16.8275C117.765 16.7674 118.06 16.7624 118.34 16.8375C118.587 16.9026 118.828 16.9978 119.084 17.0529C119.553 17.158 120.05 17.108 120.456 16.8375C120.673 16.6923 120.842 16.4819 120.978 16.2566C121.224 15.8509 121.47 15.4452 121.722 15.0446C121.809 14.9044 121.9 14.7691 121.982 14.6289C122.05 14.5187 122.123 14.4136 122.195 14.3084C122.263 14.2082 122.325 14.1081 122.403 14.0129C122.441 13.9628 122.47 13.9127 122.538 13.8977C122.581 13.8877 122.63 13.8927 122.678 13.9027C122.751 13.9227 122.818 13.9478 122.842 14.0279C122.862 14.083 122.862 14.1481 122.862 14.2082L122.847 14.1982Z" fill="#017072"/>
<path d="M130.035 28.4669C129.533 28.0612 128.924 27.8559 128.209 27.8559C127.494 27.8559 126.871 28.0362 126.282 28.3968C125.63 28.8024 125.006 29.2882 124.422 29.8542L123.475 30.8007C123.475 30.8007 123.47 30.7706 123.465 30.7556C123.441 30.7857 123.412 30.8157 123.388 30.8458C123.412 30.7907 123.436 30.7356 123.465 30.6755C123.731 30.0695 124.026 29.2482 124.34 28.2115C124.427 27.931 124.499 27.6355 124.557 27.33C124.557 27.33 124.557 27.32 124.557 27.315C124.731 26.4386 124.813 25.452 124.799 24.3451C124.799 23.4086 124.895 22.3769 125.088 21.2601C125.282 20.0832 125.523 18.9814 125.813 17.9647C125.895 17.6091 125.866 17.3838 125.726 17.2786C125.668 17.2335 125.591 17.2135 125.494 17.2135C125.34 17.2135 125.137 17.4839 124.886 18.0198C124.557 18.7009 124.325 19.1967 124.19 19.5172C124.151 19.6374 123.948 20.0982 123.581 20.8945C123.369 21.3152 123.214 21.7058 123.118 22.0614C122.461 23.7191 122.137 25.3167 122.137 26.8542C122.137 27.2549 122.069 28.1614 121.934 29.5787C121.91 29.8441 121.881 30.0945 121.852 30.3299C121.717 31.0711 121.567 31.6471 121.407 32.0427C121.19 32.5836 120.963 33.1345 120.722 33.7004C120.523 34.1762 120.243 34.682 119.871 35.2229C119.871 35.2029 119.601 35.5535 119.055 36.2747L118.905 36.485L118.862 36.5451C118.833 36.5451 118.809 36.5451 118.78 36.5451C118.49 36.5351 118.137 36.4549 117.722 36.3097C117.514 36.2396 117.306 36.1745 117.103 36.1044C116.992 36.0693 116.886 36.0242 116.765 36.0142C116.644 36.0042 116.538 36.0142 116.427 36.0493C116.35 36.0743 116.272 36.0944 116.195 36.1244C116.113 36.1545 116.036 36.1895 115.958 36.2346C115.751 36.3448 115.558 36.48 115.374 36.6302C115.369 36.6352 115.359 36.6402 115.355 36.6453C114.843 37.076 114.229 37.7871 113.509 38.7787C112.553 40.131 111.331 40.8121 109.853 40.8121C108.785 40.8121 107.853 40.4415 107.046 39.6952C105.978 38.6786 105.447 37.0459 105.447 34.7872C105.447 34.7772 105.447 34.7622 105.447 34.7522C105.447 34.6169 105.5 33.8256 105.611 32.3833C105.722 30.9409 106.012 28.2766 106.495 24.3952C106.973 20.5139 107.244 17.8846 107.312 16.5073C107.312 16.327 107.254 16.2168 107.133 16.1668C107.012 16.1217 106.901 16.2319 106.79 16.5073C105.722 19.3069 105.017 21.2601 104.669 22.3619C103.993 26.1731 103.486 29.6538 103.152 32.804C102.814 35.9541 102.635 38.4081 102.611 40.166C102.635 42.1743 103.056 43.8671 103.887 45.2443C104.713 46.6216 105.93 47.3778 107.543 47.513C109.133 47.513 110.567 46.4313 111.852 44.2627C113.007 42.1743 114.128 40.9172 115.219 40.4815C115.456 40.6969 115.693 40.9072 115.934 41.1126C116.765 41.6234 117.746 41.8838 118.871 41.8888C118.891 41.8888 118.915 41.8888 118.939 41.8888C120.485 41.8888 122.161 41.3329 123.968 40.2311C125.229 39.3747 126.253 38.4682 127.035 37.5217C128.34 35.899 129.32 34.3715 129.972 32.9492C130.194 32.4334 130.368 31.9626 130.499 31.5419C130.644 30.971 130.731 30.4351 130.75 29.9243C130.711 29.3083 130.475 28.8175 130.04 28.4468L130.035 28.4669ZM128.098 33.0794C127.972 33.2347 127.818 33.41 127.634 33.6003C127.074 34.1812 126.325 34.7271 125.378 35.248C123.779 36.1044 122.441 36.5351 121.364 36.5351C121.055 36.5351 120.881 36.465 120.842 36.3247L122.992 33.3949L123.04 33.3298C123.673 32.5135 124.175 31.9726 124.543 31.7122C124.948 31.4117 125.504 31.2615 126.219 31.2615C126.605 31.2615 127.084 31.3516 127.663 31.5319C128.243 31.7122 128.528 31.9526 128.528 32.2531C128.528 32.4484 128.383 32.7238 128.098 33.0794Z" fill="#017072"/>
</svg>
